<?xml version="1.0" encoding="utf-8"?>
<!-- Generator: Adobe Illustrator 17.1.0, SVG Export Plug-In . SVG Version: 6.00 Build 0)  -->
<!DOCTYPE svg PUBLIC "-//W3C//DTD SVG 1.1//EN" "http://www.w3.org/Graphics/SVG/1.1/DTD/svg11.dtd">
<svg version="1.1" id="Layer_1" xmlns="http://www.w3.org/2000/svg" xmlns:xlink="http://www.w3.org/1999/xlink" x="0px" y="0px"
	 viewBox="0 0 85.3 100" enable-background="new 0 0 85.3 100" xml:space="preserve">
<path fill="#010101" d="M81.7,56c-0.6,0.8-1.5,1.2-2.4,1.2h-5.9l0.2,19.6c0,1.6-1.2,2.9-2.8,3L53,80.9v12.7c0,0.9-0.4,1.7-1.1,2.3
	c-0.5,0.5-1.2,0.7-1.9,0.7c-0.2,0-0.3,0-0.5,0l-35.7-6.2c-1.4-0.2-2.5-1.5-2.5-3V71.7c-1.5-1.4-4.4-4.3-7.3-8.5
	c-0.1-0.1-0.1-0.2-0.2-0.3l71-40.8c1.3,4.6,1.1,10.1,1.5,11.7c2.8,9.7,5.9,19.4,6,19.6C82.4,54.2,82.3,55.2,81.7,56z M40.5,39.2
	l-2.6-23.5L34.3,18L25.9,3l-12.2,7.8l10,14l-3.5,2.3L40.5,39.2z"/>
</svg>
