<?xml version="1.0" encoding="utf-8"?>
<!-- Generator: Adobe Illustrator 17.0.0, SVG Export Plug-In . SVG Version: 6.00 Build 0)  -->
<!DOCTYPE svg PUBLIC "-//W3C//DTD SVG 1.1//EN" "http://www.w3.org/Graphics/SVG/1.1/DTD/svg11.dtd">
<svg version="1.1" id="msvg" xmlns="http://www.w3.org/2000/svg" xmlns:xlink="http://www.w3.org/1999/xlink" x="0px" y="0px"
	 width="55.167px" height="50px" viewBox="21.333 13.333 55.167 50" enable-background="new 21.333 13.333 55.167 50"
	 xml:space="preserve">
<path d="M38.958,30.674v13.284h19.583V30.674C58.542,30.674,38.958,30.674,38.958,30.674z M56.289,41.815l-15.091,0V32.8
	l7.563,6.283l7.539-6.277L56.289,41.815z"/>
<path d="M48.75,17.716c10.64,0,19.284,8.644,19.284,19.284S59.39,56.284,48.75,56.284S29.466,47.64,29.466,37
	S38.11,17.716,48.75,17.716 M48.75,15.5c-11.895,0-21.5,9.605-21.5,21.5s9.68,21.5,21.5,21.5c11.895,0,21.5-9.68,21.5-21.5
	C70.25,25.105,60.645,15.5,48.75,15.5z"/>
</svg>
